<?xml version="1.0" encoding="UTF-8"?>
<svg width="267px" height="60px" viewBox="0 0 267 60" version="1.1" xmlns="http://www.w3.org/2000/svg" xmlns:xlink="http://www.w3.org/1999/xlink">
    <!-- Generator: Sketch 50.2 (55047) - http://www.bohemiancoding.com/sketch -->
    <title>Artboard 1</title>
    <desc>Created with Sketch.</desc>
    <defs></defs>
    <g id="Artboard-1" stroke="none" stroke-width="1" fill="none" fill-rule="evenodd">
        <path d="M55.7577662,33.1676416 C55.7474805,33.2507065 55.7368831,33.3337714 55.7258182,33.4168364 C55.7155325,33.4964727 55.7046234,33.5761091 55.6935584,33.6557455 C55.5447273,34.6947584 55.3334026,35.7314338 55.0574026,36.7610961 C54.7658182,37.8496675 54.4069091,38.9087844 53.9870649,39.9353299 C53.9638442,39.9914338 53.9415584,40.0478494 53.9178701,40.1041091 C53.8814026,40.1913818 53.8424416,40.2775636 53.805039,40.3645247 C53.4071688,41.2796416 52.9566234,42.1783948 52.4501299,43.0554857 C51.9163636,43.9802649 51.3316364,44.8640571 50.7010909,45.7051481 C50.6563636,45.7643688 50.6114805,45.8234338 50.5661299,45.8823429 C50.5114286,45.9538753 50.4564156,46.0249403 50.4010909,46.0958494 C49.7541818,46.9188623 49.0545974,47.7089922 48.3028052,48.4606286 C47.5826494,49.1807844 46.8271169,49.852161 46.0413506,50.476161 C45.9710649,50.5314857 45.9017143,50.588213 45.8308052,50.6430701 C45.7792208,50.6831221 45.7268571,50.7219273 45.674961,50.7616675 C44.7956883,51.4294597 43.8693506,52.047226 42.8975065,52.6081091 C41.9752208,53.1406286 41.0295584,53.6126805 40.0653506,54.0250442 C39.9882078,54.0577714 39.9107532,54.090187 39.8332987,54.1221351 C39.7592727,54.1529922 39.6850909,54.1833818 39.6109091,54.2134597 C38.6365714,54.6040052 37.6330909,54.9393818 36.6032727,55.2153818 C35.5157922,55.5068104 34.4200519,55.7253039 33.3222857,55.8750701 C33.2601039,55.8833299 33.1983896,55.8923688 33.1360519,55.900161 C33.045974,55.9118494 32.9557403,55.9207325 32.8653506,55.9314857 C31.8710649,56.0452519 30.8643117,56.1046286 29.8485195,56.1046286 C28.7816104,56.1046286 27.7246753,56.0404208 26.6817662,55.9149662 C26.6049351,55.9053039 26.5279481,55.8956416 26.4511169,55.8853558 C26.3652468,55.8742909 26.2796883,55.8626026 26.1941299,55.8507584 C25.1568312,55.7019273 24.1218701,55.4907584 23.0939221,55.2153818 C22.111013,54.9520052 21.1524156,54.6334597 20.2198442,54.2655117 C20.1358442,54.2318494 20.0512208,54.2000571 19.9673766,54.1654597 C19.9072208,54.1409922 19.8476883,54.1152779 19.7875325,54.0903429 C18.7695584,53.6625506 17.7712208,53.1693039 16.7993766,52.6081091 C15.8772468,52.0757455 14.9957922,51.4928883 14.1567273,50.864213 C14.0892468,50.8134078 14.0219221,50.7621351 13.9550649,50.7105506 C13.8917922,50.662239 13.8288312,50.6133039 13.766026,50.5645247 C12.9403636,49.9160571 12.1482078,49.2146026 11.3942338,48.4606286 C10.5967792,47.663174 9.85838961,46.8220831 9.17890909,45.9445247 C9.14275325,45.8974597 9.10581818,45.851174 9.07012987,45.8037974 C9.01075325,45.7260312 8.95402597,45.6468623 8.89558442,45.5686286 C8.30353247,44.7683688 7.752,43.9305506 7.24675325,43.0554857 C6.71298701,42.1310182 6.23984416,41.1828623 5.8267013,40.2163169 C5.79771429,40.1472779 5.76872727,40.0783948 5.74020779,40.0090442 C5.70576623,39.9267584 5.6721039,39.844161 5.6385974,39.7614078 C5.24914286,38.7892519 4.9147013,37.7882649 4.63948052,36.7612519 C4.37657143,35.7800571 4.17335065,34.7926286 4.02592208,33.8027065 C4.01267532,33.7106026 3.99755844,33.6189662 3.98524675,33.5268623 C3.97651948,33.4639013 3.96919481,33.4009403 3.96109091,33.3381351 C3.82223377,32.2417714 3.75023377,31.1296675 3.75023377,30.0063429 C3.75023377,28.9408364 3.81444156,27.8853039 3.93942857,26.8436416 C3.94955844,26.7622909 3.95984416,26.6807844 3.97075325,26.5994338 C3.98135065,26.5180831 3.99241558,26.4368883 4.00379221,26.3556935 C4.15246753,25.3169922 4.36379221,24.2809403 4.63948052,23.2517455 C4.93106494,22.1637974 5.28981818,21.1049922 5.70919481,20.0789143 C5.73288312,20.0218753 5.75548052,19.9645247 5.77948052,19.9076416 C5.81516883,19.822239 5.85319481,19.7380831 5.88981818,19.6531481 C6.28815584,18.736161 6.73948052,17.8358494 7.24690909,16.9572 C7.7798961,16.0339792 8.36353247,15.1514338 8.99314286,14.3112779 C9.0412987,14.2475377 9.08976623,14.1837974 9.1387013,14.120213 C9.18966234,14.0536675 9.24109091,13.9872779 9.29251948,13.9212 C9.94036364,13.0966286 10.641039,12.3052519 11.3940779,11.552213 C12.1134545,10.8328364 12.8683636,10.162239 13.6531948,9.53870649 C13.7245714,9.48244675 13.7947013,9.42494026 13.8668571,9.3693039 C13.917974,9.32956364 13.9698701,9.29107013 14.0212987,9.2517974 C14.9008831,8.58384935 15.8272208,7.96592727 16.7993766,7.40473247 C17.7221299,6.8719013 18.6685714,6.39953766 19.6332468,5.98701818 C19.7083636,5.95522597 19.7836364,5.92358961 19.8590649,5.89242078 C19.9352727,5.86078442 20.0116364,5.82961558 20.0881558,5.7986026 C21.0618701,5.40821299 22.0647273,5.07314805 23.0937662,4.79745974 C24.1826494,4.50556364 25.2796364,4.28691429 26.378961,4.13714805 C26.4386494,4.1292 26.4981818,4.12031688 26.558026,4.11283636 C26.6530909,4.10068052 26.748,4.09117403 26.8432208,4.08010909 C27.8337662,3.96712208 28.8366234,3.90821299 29.8485195,3.90821299 C30.9155844,3.90821299 31.9725195,3.97257662 33.0157403,4.09787532 C33.0917922,4.10738182 33.1676883,4.11704416 33.2437403,4.12717403 C33.3307013,4.13839481 33.4173506,4.15023896 33.504,4.16223896 C34.540987,4.31107013 35.5756364,4.52192727 36.6032727,4.7973039 C37.5866494,5.06083636 38.5458701,5.37953766 39.4789091,5.74795325 C39.5624416,5.7813039 39.6462857,5.81294026 39.7295065,5.84722597 C39.7898182,5.87169351 39.8493506,5.89756364 39.9093506,5.9224987 C40.9274805,6.35013506 41.9256623,6.84353766 42.8976623,7.40473247 C43.8205714,7.93740779 44.7026494,8.52088831 45.5424935,9.15018701 C45.6073247,9.19927792 45.6721558,9.24852468 45.7366753,9.29808312 C45.8024416,9.34842078 45.8678961,9.39907013 45.933039,9.45003117 C46.7579221,10.0980312 47.5494545,10.7988623 48.3028052,11.5520571 C49.0985455,12.3477974 49.8352208,13.1870182 50.5136104,14.0623948 C50.5522597,14.1127325 50.5916883,14.1624468 50.6301818,14.2132519 C50.6841039,14.2840052 50.7358442,14.3560052 50.788987,14.4273818 C51.3858701,15.2327844 51.9414545,16.076213 52.4502857,16.9573558 C52.9834286,17.8808883 53.4559481,18.8279532 53.8687792,19.7934078 C53.8996364,19.8663429 53.9303377,19.9394338 53.9605714,20.0126805 C53.9931429,20.0907584 54.0250909,20.1689922 54.0567273,20.2473818 C54.4468052,21.2206286 54.7818701,22.2230182 55.0574026,23.2515896 C55.3214026,24.2366805 55.5252468,25.2283169 55.6728312,26.2222909 C55.6854545,26.3090961 55.6994805,26.3954338 55.7113247,26.4825506 C55.7203636,26.548161 55.728,26.6139273 55.7365714,26.6796935 C55.874961,27.7744987 55.9468052,28.8848883 55.9468052,30.0063429 C55.9468052,31.0713818 55.8825974,32.1264468 55.7577662,33.1676416 M59.6948571,29.5646805 C59.6947013,29.5570442 59.6945455,29.5494078 59.6943896,29.5416156 C59.6621299,27.2435377 59.3616623,24.9613558 58.7984416,22.7330961 C58.7962597,22.7243688 58.7940779,22.7154857 58.7918961,22.7066026 C58.7558961,22.5649403 58.7183377,22.4235896 58.6801558,22.282239 C58.6421299,22.1394857 58.6037922,21.9970442 58.5635844,21.8550701 C58.5615584,21.8475896 58.5593766,21.8402649 58.5571948,21.8327844 C57.9308571,19.6202649 57.0495584,17.4925247 55.9277922,15.4852519 C55.9243636,15.4788623 55.9207792,15.4724727 55.9171948,15.4660831 C55.845039,15.3368883 55.7711688,15.2084727 55.6968312,15.080213 C55.6242078,14.9538234 55.550961,14.8275896 55.4763117,14.7022909 C55.4716364,14.694187 55.4666494,14.686239 55.4618182,14.6781351 C54.2848831,12.7049922 52.8841558,10.8794338 51.2827013,9.23200519 C51.2766234,9.22592727 51.2707013,9.21969351 51.2647792,9.21345974 C51.1623896,9.10826494 51.0585974,9.00416104 50.9546494,8.90036883 C50.8508571,8.79626494 50.7467532,8.69262857 50.6415584,8.59008312 C50.6353247,8.58416104 50.6290909,8.57823896 50.6228571,8.57231688 C48.9751169,6.97039481 47.1489351,5.5692 45.175013,4.39195325 C45.1678442,4.38774545 45.1606753,4.38338182 45.1535065,4.37901818 C45.0274286,4.30405714 44.9004156,4.23034286 44.7732468,4.15725195 C44.6457662,4.08338182 44.517974,4.00997922 44.3895584,3.93797922 C44.3825455,3.93408312 44.3755325,3.93034286 44.3685195,3.92644675 C42.2485714,2.74203117 39.9944416,1.82566753 37.6478961,1.1944987 C37.5486234,1.16753766 37.4488831,1.14197922 37.3492987,1.11595325 C37.2207273,1.08275844 37.0918442,1.05034286 36.9624935,1.01886234 C34.840987,0.49507013 32.6717922,0.209251948 30.487013,0.16545974 C30.3564156,0.162498701 30.2258182,0.160472727 30.0953766,0.15907013 C30.0292987,0.158602597 29.9632208,0.155797403 29.8971429,0.155797403 C29.8597403,0.155797403 29.8223377,0.157511688 29.7850909,0.157667532 C27.3501818,0.158914286 24.9307013,0.460628571 22.5716883,1.05735584 C22.5646753,1.05907013 22.5578182,1.06078442 22.550961,1.0624987 C22.4072727,1.09896623 22.2640519,1.13699221 22.1208312,1.17564156 C21.9799481,1.2132 21.8393766,1.25107013 21.6992727,1.29065455 C21.6899221,1.2933039 21.6805714,1.29610909 21.6713766,1.29875844 C19.461039,1.92478442 17.3353247,2.8053039 15.3297662,3.92566753 C15.3221299,3.93003117 15.3144935,3.93408312 15.3067013,3.93829091 C15.1787532,4.00997922 15.0514286,4.08322597 14.9242597,4.15694026 C14.7969351,4.23003117 14.6699221,4.3039013 14.5436883,4.37886234 C14.5363636,4.38338182 14.5288831,4.3879013 14.5215584,4.39226494 C12.5471688,5.56982338 10.7208312,6.97132987 9.07262338,8.57371948 C9.06716883,8.57901818 9.06171429,8.58416104 9.05641558,8.58945974 C8.95044156,8.69247273 8.84571429,8.79673247 8.74145455,8.90145974 C8.63781818,9.00462857 8.53480519,9.10826494 8.43288312,9.21283636 C8.42649351,9.21953766 8.4201039,9.22623896 8.41371429,9.23278442 C6.81194805,10.8805247 5.41090909,12.7065506 4.23397403,14.680161 C4.22976623,14.687174 4.2254026,14.694187 4.22135065,14.7012 C4.14607792,14.8275896 4.07220779,14.9549143 3.99880519,15.0825506 C3.92524675,15.2095636 3.852,15.3368883 3.78031169,15.4649922 C3.77625974,15.4723169 3.77220779,15.4797974 3.76815584,15.4871221 C2.64763636,17.4926805 1.76711688,19.6183948 1.14093506,21.8287325 C1.13828571,21.838239 1.13548052,21.8477455 1.13267532,21.8572519 C1.09324675,21.9973558 1.05522078,22.1377714 1.01781818,22.2784987 C0.979168831,22.4217195 0.941142857,22.5649403 0.904675325,22.7086286 C0.902805195,22.7156416 0.901090909,22.7228104 0.899376623,22.7296675 C0.335376623,24.9601091 0.0345974026,27.2446286 0.00249350649,29.5448883 C0.00233766234,29.5509662 0.00218181818,29.5568883 0.00202597403,29.5628104 C0.000155844156,29.7119532 -0.000155844156,29.8612519 0.000155844156,30.0105506 C-0.000155844156,30.1554857 0.000155844156,30.3002649 0.00202597403,30.4450442 C0.00218181818,30.4554857 0.00249350649,30.4657714 0.00264935065,30.4760571 C0.0372467532,32.9028623 0.370753247,35.3117455 0.997090909,37.6578234 C1.02327273,37.7572519 1.05085714,37.856213 1.07812987,37.955174 C1.11381818,38.0835896 1.15028571,38.2118494 1.18768831,38.3397974 C1.79454545,40.4379273 2.63111688,42.4584468 3.68493506,44.3715896 C3.74851948,44.4876935 3.81288312,44.6033299 3.87787013,44.7184987 C3.91012987,44.775226 3.94020779,44.8332 3.97293506,44.8896156 C3.99132468,44.9214078 4.01111688,44.9524208 4.02966234,44.984213 C5.24867532,47.0935636 6.72077922,49.0392779 8.41823377,50.7847325 L8.43007792,50.7970442 C8.53418182,50.9042649 8.63968831,51.0099273 8.74550649,51.1155896 C8.8478961,51.2179792 8.95044156,51.320213 9.05407792,51.4212 C9.06155844,51.4283688 9.06903896,51.4355377 9.07636364,51.4427065 C10.7242597,53.0443169 12.5504416,54.4452 14.5242078,55.6221351 C14.5302857,55.6255636 14.5360519,55.6293039 14.5421299,55.6327325 C14.6696104,55.7087844 14.798026,55.7832779 14.9267532,55.8573039 C15.0526753,55.9303948 15.1787532,56.0027065 15.3056104,56.0736156 C15.3143377,56.0786026 15.3230649,56.0832779 15.3317922,56.0881091 C17.3368831,57.208161 19.4622857,58.0883688 21.6721558,58.714239 C21.681039,58.7167325 21.6897662,58.7193818 21.6986494,58.7220312 C21.8392208,58.7616156 21.9804156,58.7997974 22.1216104,58.8373558 C22.2643636,58.8758494 22.4071169,58.9137195 22.5503377,58.9500312 L22.5723117,58.9556416 C24.8001039,59.5190182 27.081974,59.8196416 29.3797403,59.8523688 L29.4091948,59.8526805 C29.5547532,59.8547065 29.7001558,59.8550182 29.8457143,59.8548623 C29.9942338,59.8550182 30.1424416,59.8547065 30.2906494,59.8526805 C30.297974,59.8526805 30.3051429,59.8525247 30.3123117,59.8523688 C32.6114805,59.8201091 34.8945974,59.5194857 37.1237922,58.9557974 C37.1314286,58.9539273 37.1392208,58.9520571 37.147013,58.9500312 C37.2899221,58.9137195 37.4326753,58.8758494 37.5752727,58.8373558 C37.7164675,58.7997974 37.8575065,58.7617714 37.9980779,58.7220312 C38.0071169,58.7195377 38.0161558,58.7167325 38.025039,58.714239 C40.2374026,58.0875896 42.3648312,57.2062909 44.3717922,56.0845247 C44.3770909,56.0815636 44.3823896,56.0787584 44.3875325,56.0757974 C44.5176623,56.0030182 44.6471688,55.9286805 44.7762078,55.8537195 C44.9018182,55.7814078 45.0272727,55.7089403 45.1517922,55.6347584 C45.1605195,55.6294597 45.1692468,55.624161 45.1778182,55.6188623 C47.2616104,54.3760052 49.1806753,52.883174 50.8993247,51.1681091 C50.9736623,51.094239 51.0467532,51.0195896 51.1203117,50.9449403 C51.2119481,50.8517455 51.3031169,50.7577714 51.3935065,50.663174 C52.9084675,49.0874338 54.2410909,47.3514857 55.3715844,45.4807325 C55.4398442,45.3685247 55.5073247,45.2560052 55.574026,45.143174 C55.6073766,45.0862909 55.6425974,45.0308104 55.6756364,44.9737714 C55.694026,44.9416675 55.7111688,44.9086286 55.7295584,44.8765247 C56.947013,42.7654597 57.8961039,40.5170961 58.5590649,38.1736675 C58.5601558,38.1697714 58.5614026,38.1655636 58.5626494,38.1615117 C58.6036364,38.0161091 58.6430649,37.8705506 58.6818701,37.7243688 C58.718961,37.5864468 58.7557403,37.4480571 58.790961,37.3095117 C58.7939221,37.2976675 58.7967273,37.2858234 58.7998442,37.2739792 C59.361974,35.048213 59.6618182,32.7686805 59.6943896,30.4735636 C59.6945455,30.4645247 59.6947013,30.4557974 59.6948571,30.4467584 C59.6968831,30.3004208 59.6971948,30.1539273 59.6968831,30.0074338 C59.6971948,29.8598494 59.6968831,29.7122649 59.6948571,29.5646805" id="Fill-1" fill="#53C9A0"></path>
        <path d="M35.1968416,31.8673091 C34.7405299,33.1349455 33.8615688,34.1907896 32.681361,34.8721403 C31.8009974,35.3805039 30.8235429,35.6401403 29.8333091,35.6401403 C29.3369455,35.6401403 28.8374649,35.5748416 28.3449974,35.4429974 C27.2489455,35.149387 26.2872312,34.5509455 25.5519584,33.7202961 C24.6826597,32.691413 24.2079584,31.4025818 24.2081143,30.0400364 C24.2081143,29.0233091 24.4719584,28.0469455 24.9669195,27.1894909 C25.2151792,26.7596727 25.521413,26.3597766 25.8818805,25.9991532 C26.6838545,25.1973351 27.6825039,24.6637247 28.7688935,24.4421143 C30.0949714,24.2032052 31.4491013,24.4365039 32.6294649,25.1180104 C33.5099844,25.626374 34.2235948,26.3429455 34.7187117,27.2005558 C34.9668156,27.630374 35.1600623,28.0955688 35.2920623,28.5880364 C35.5856727,29.6836208 35.548426,30.8155169 35.1968416,31.8673091 M46.7531532,15.4243481 L46.7531532,15.4241922 C46.7495688,15.4218545 46.7459844,15.4195169 46.7424,15.4171792 C46.6421922,15.3490753 46.540426,15.2825299 46.4371013,15.2170753 C46.4208935,15.2067896 46.4045299,15.1966597 46.3881662,15.186374 C46.2941922,15.1276208 46.1988156,15.0698026 46.1023481,15.013387 C46.0833351,15.0021662 46.0644779,14.9911013 46.0454649,14.9800364 C45.9458805,14.9225299 45.8450494,14.8661143 45.7426597,14.8109455 C45.7289455,14.8034649 45.7152312,14.7958286 45.701361,14.7883481 C45.3482182,14.5993091 44.9798026,14.4247636 44.5965818,14.2650234 C44.5749195,14.2559844 44.5527896,14.2472571 44.5309714,14.2382182 C44.4281143,14.1959844 44.3243221,14.1548416 44.219439,14.1146338 C44.1878026,14.1026338 44.1560104,14.0907896 44.1242182,14.0787896 C44.0263481,14.0423221 43.9275429,14.0066338 43.8279584,13.9718805 C43.7939844,13.9600364 43.7601662,13.9480364 43.7260364,13.9363481 C43.6224,13.9011273 43.5178286,13.8671532 43.4123221,13.8338026 C43.3834909,13.8246078 43.3548156,13.8152571 43.3258286,13.8062182 C43.0546597,13.722374 42.7777247,13.6450753 42.4947117,13.5744779 C42.4696208,13.5682442 42.4440623,13.5624779 42.4188156,13.5564 C42.3052052,13.5286597 42.1908156,13.5016987 42.0753351,13.4761403 C42.0323221,13.4666338 41.9888416,13.4575948 41.9456727,13.4484 C41.8460883,13.4270494 41.7458805,13.4064779 41.6450494,13.3868416 C41.596426,13.3773351 41.5478026,13.3681403 41.4990234,13.3591013 C41.3995948,13.3407117 41.2995429,13.3231013 41.1988675,13.3061143 C41.1513351,13.2981662 41.1036468,13.2899065 41.0556468,13.2822701 C40.9451532,13.2645039 40.8335688,13.2481403 40.7216727,13.2322442 C40.6839584,13.2269455 40.6467117,13.2211792 40.6088416,13.2160364 C40.4707636,13.1974909 40.3315948,13.1801922 40.1913351,13.1642961 C40.1802701,13.1630494 40.169361,13.1614909 40.1581403,13.1602442 C40.1567377,13.1600883 40.1553351,13.1599325 40.1540883,13.1597766 C40.1528416,13.1596208 40.1517506,13.1596208 40.1505039,13.1594649 C40.0361143,13.1466857 39.9201662,13.1370234 39.8046857,13.126426 C39.7320623,13.1197247 39.6602182,13.1114649 39.5871273,13.1055429 C39.4030753,13.0905818 39.2174649,13.0782701 39.0309195,13.0681403 C39.024374,13.0676727 39.0179844,13.0672052 39.011439,13.0667377 C38.8295688,13.0570753 38.6461403,13.0500623 38.4619325,13.0449195 C38.4497766,13.0446078 38.4376208,13.0438286 38.4253091,13.0435169 C38.2531013,13.0389974 38.0796468,13.0372831 37.905413,13.0366597 C37.8818805,13.0366597 37.8586597,13.0358805 37.8349714,13.0358805 L37.8296727,13.0358805 C37.7674909,13.0358805 37.7048416,13.0371273 37.6423481,13.0377506 C37.5232831,13.0386857 37.4039065,13.0402442 37.2839065,13.0430494 C37.2092571,13.0447636 37.1342961,13.0471013 37.0591792,13.0495948 C36.9436987,13.0534909 36.8279065,13.0583221 36.7118026,13.0637766 C36.6432312,13.0670494 36.5749714,13.0698545 36.5062442,13.0737506 C36.329361,13.0837247 36.1516987,13.0951013 35.9732571,13.1088156 C35.9313351,13.1120883 35.8889455,13.1162961 35.8468675,13.1198805 C35.7005299,13.1318805 35.5538805,13.1449714 35.4067636,13.1596208 C35.3424,13.1661662 35.2778805,13.1730234 35.2132052,13.1798805 C35.0794909,13.1942182 34.9453091,13.2096468 34.8108156,13.2261662 C34.7529974,13.2331792 34.6953351,13.2400364 34.637361,13.247361 C34.4483221,13.2718286 34.2588156,13.2978545 34.0686857,13.326374 C34.0658805,13.3268416 34.0630753,13.3271532 34.0602701,13.3276208 C34.0454649,13.3298026 34.0306597,13.3326078 34.0158545,13.3347896 C33.8409974,13.361439 33.6656727,13.3901143 33.4901922,13.4203481 C33.4336208,13.4300104 33.3770494,13.4401403 33.3204779,13.4502701 C33.1755429,13.4759844 33.0302961,13.5031013 32.8848935,13.5313091 C32.8311273,13.5417506 32.7775169,13.5518805 32.7237506,13.5626338 C32.5291013,13.601439 32.3342961,13.6419584 32.1391792,13.6849714 C32.1332571,13.686374 32.1273351,13.6877766 32.121413,13.6890234 C31.9329974,13.7309455 31.744426,13.7750494 31.5555429,13.8208675 C31.4995948,13.8342701 31.4436468,13.8482961 31.3878545,13.8621662 C31.2412052,13.8986338 31.0945558,13.9360364 30.9477506,13.9748416 C30.8925818,13.9894909 30.8375688,14.0038286 30.7824,14.0186338 C30.5866597,14.0714649 30.3909195,14.1255429 30.1950234,14.1825818 L30.1816208,14.1858545 L30.0758026,14.211413 C30.0742442,14.2118805 30.0728416,14.2123481 30.0712831,14.2128156 L30.0705039,14.2129714 C28.7243221,14.6416987 27.5102961,15.082426 26.4402701,15.5300104 C26.4362182,15.5317247 26.4320104,15.533439 26.4279584,15.5351532 C26.3604779,15.563361 26.2945558,15.5917247 26.2283221,15.6200883 C26.1885818,15.6369195 26.1480623,15.6539065 26.1089455,15.6708935 C26.088374,15.6796208 26.0685818,15.6886597 26.0483221,15.697387 C25.5491532,15.9143221 25.0831792,16.1326597 24.6532052,16.3520883 C24.2439584,16.5609195 23.8532571,16.7647636 23.4803221,16.9637766 C19.8675429,18.8900104 17.9335169,20.333439 17.0559584,21.0702701 C17.0531532,21.0665299 17.0500364,21.0621662 17.0470753,21.0582701 C17.0032831,21.0018545 16.9584,20.9415429 16.9132052,20.8778026 C16.9007377,20.8603481 16.8881143,20.8411792 16.8754909,20.8232571 C16.8583481,20.7984779 16.8410494,20.7719844 16.8237506,20.7461143 C16.8034909,20.7160364 16.783387,20.6870494 16.7631273,20.6555688 C16.7511273,20.6368675 16.7389714,20.6172312 16.7269714,20.5980623 C16.6978286,20.5517766 16.6688416,20.5028416 16.6396987,20.4535948 C16.629413,20.4359844 16.6189714,20.4196208 16.6088416,20.4016987 C16.5993351,20.3853351 16.5898286,20.3686597 16.5803221,20.3518286 C16.5443221,20.2877766 16.5086338,20.2204519 16.4732571,20.1518805 C16.4646857,20.1350494 16.4558026,20.1194649 16.4472312,20.1024779 C16.4436468,20.0953091 16.4400623,20.0886078 16.4366338,20.0815948 C16.3972052,20.0025818 16.3587117,19.9192052 16.3208416,19.834426 C16.3111792,19.8129195 16.3010494,19.7926597 16.2915429,19.7705299 C16.253361,19.6824779 16.2167377,19.5897506 16.1808935,19.4954649 C16.1716987,19.4713091 16.1620364,19.4484 16.1529974,19.4237766 C16.1188675,19.3308935 16.0867636,19.2333351 16.055439,19.134374 C16.0459325,19.1044519 16.0359584,19.0754649 16.0267636,19.0449195 C15.9979325,18.949387 15.9715948,18.8493351 15.9458805,18.7485039 C15.9345039,18.7039325 15.9225039,18.6604519 15.9117506,18.6147896 C15.7266078,17.8207636 15.6471273,16.8698026 15.7817766,15.7472571 C15.8960104,14.5421143 16.8195429,13.5185299 16.8195429,13.5185299 L14.9328935,14.3357766 C12.7520104,15.2805039 11.0469195,16.7368675 10.0015169,18.5476208 C9.29024416,19.7797247 8.87975065,21.1667377 8.76816623,22.6578545 L8.76801039,22.6578545 C8.76785455,22.6608156 8.7676987,22.6639325 8.76754286,22.6670494 C8.7585039,22.789387 8.75164675,22.9126597 8.7465039,23.0362442 C8.74572468,23.0544779 8.74525714,23.0725558 8.74463377,23.0907896 C8.74058182,23.2029974 8.73824416,23.3158286 8.73746494,23.4291273 C8.73746494,23.4496987 8.73730909,23.4702701 8.73715325,23.4908416 C8.73715325,23.6075688 8.73871169,23.7249195 8.74214026,23.8428935 C8.74245195,23.8569195 8.74260779,23.8709455 8.74307532,23.8851273 C8.75601039,24.2865818 8.78920519,24.6942701 8.84265974,25.1071013 C8.84546494,25.1279844 8.84858182,25.1491792 8.85138701,25.1702182 C8.8665039,25.2828935 8.88302338,25.3958805 8.90125714,25.5091792 C8.90624416,25.5408156 8.91154286,25.5724519 8.91684156,25.6042442 C8.9342961,25.7092831 8.95330909,25.8146338 8.97325714,25.9202961 C8.9798026,25.9539584 8.98603636,25.9874649 8.99273766,26.0212831 C9.0144,26.1309974 9.03777662,26.2411792 9.06224416,26.3515169 C9.06816623,26.3786338 9.07377662,26.4057506 9.08001039,26.4328675 C9.14328312,26.7110494 9.21512727,26.9911013 9.29601039,27.2727117 C9.30193247,27.2937506 9.30863377,27.3149455 9.31471169,27.3358286 C9.34852987,27.4520883 9.38375065,27.5685039 9.42052987,27.6850753 C9.43315325,27.7249714 9.4464,27.7650234 9.45933506,27.8049195 C9.49143896,27.9041922 9.52447792,28.0036208 9.55860779,28.1032052 C9.57403636,28.1477766 9.58977662,28.1925039 9.60551688,28.2372312 C9.63995844,28.3349455 9.67564675,28.4328156 9.71227013,28.5308416 C9.72847792,28.5741662 9.74437403,28.6173351 9.76089351,28.6606597 C9.80203636,28.7683481 9.84473766,28.8761922 9.88837403,28.9841922 C9.90130909,29.0164519 9.91377662,29.0487117 9.92702338,29.0809714 C9.98141299,29.2132831 10.037361,29.3459065 10.0953351,29.4786857 C10.0986078,29.4863221 10.1015688,29.4938026 10.1048416,29.5012831 C10.1053091,29.5022182 10.1057766,29.5031532 10.1060883,29.5039325 C10.1067117,29.5054909 10.1073351,29.5068935 10.1079584,29.5082961 C10.1690494,29.6476208 10.2337247,29.7871013 10.2988675,29.926426 C10.3136727,29.9582182 10.327387,29.9903221 10.3425039,30.0221143 C10.5059844,30.3674649 10.6814649,30.7123481 10.8680104,31.0561403 C10.8684779,31.0570753 10.8689455,31.0581662 10.869413,31.0589455 C10.955439,31.2172831 11.0442701,31.3753091 11.1351273,31.5331792 C11.1430753,31.5472052 11.1505558,31.561387 11.1586597,31.575413 L11.1605299,31.5785299 C11.1929455,31.6347896 11.2269195,31.6907377 11.2599584,31.7468416 C11.3190234,31.8470494 11.3785558,31.9472571 11.4393351,32.0471532 C11.4790753,32.1124519 11.519439,32.177439 11.5599584,32.2425818 C11.6199584,32.3390494 11.6810494,32.435361 11.7427636,32.5315169 C11.7806338,32.590426 11.8180364,32.6493351 11.8565299,32.7080883 C11.9531532,32.8558286 12.0513351,33.0031013 12.1520104,33.1499065 C12.1772571,33.1868416 12.203439,33.2234649 12.2291532,33.2602442 C12.3111273,33.3788416 12.3945039,33.4971273 12.4791273,33.6151013 C12.5176208,33.6687117 12.5567377,33.7221662 12.5956987,33.7756208 C12.6740883,33.8829974 12.753413,33.9899065 12.8336727,34.0968156 C12.8696727,34.1445039 12.905361,34.1923481 12.9418286,34.2401922 C13.0568416,34.3907377 13.1735688,34.5411273 13.2927896,34.6907377 C13.3051013,34.7063221 13.3178805,34.7215948 13.3301922,34.7370234 C13.4395948,34.8736987 13.5508675,35.0097506 13.6635429,35.1453351 C13.7003221,35.189439 13.7375688,35.2336987 13.7746597,35.2776468 C13.8698805,35.3906338 13.9663481,35.5034649 14.0637506,35.6156727 C14.0989714,35.6561922 14.1338805,35.6967117 14.169413,35.7372312 C14.3009455,35.8869974 14.4340364,36.0362961 14.5697766,36.1845039 C14.5700883,36.1848156 14.5702442,36.1849714 14.5704,36.1852831 C14.5716468,36.1865299 14.5728935,36.1877766 14.5739844,36.1890234 C14.7070753,36.3345818 14.8428156,36.4788935 14.9798026,36.6228935 C14.9946078,36.6381662 15.0087896,36.6540623 15.0235948,36.6693351 C15.0471273,36.6941143 15.0715948,36.7182701 15.0952831,36.7428935 C15.2017247,36.8532312 15.3092571,36.9632571 15.4178805,37.0726597 C15.4425039,37.0975948 15.4661922,37.1226857 15.4908156,37.1473091 C15.5053091,37.1618026 15.5202701,37.1758286 15.5347636,37.1903221 C15.6787636,37.3338545 15.8240104,37.4767636 15.9717506,37.6182701 L15.9878026,37.6351013 L16.056374,37.7072571 C16.0573091,37.7081922 16.0584,37.7089714 16.0594909,37.7100623 L16.060426,37.7109974 C17.2962701,38.8369714 18.453413,39.7929195 19.5162701,40.5687117 C19.5357506,40.5828935 19.5558545,40.5983221 19.5751792,40.6123481 C19.629413,40.6517766 19.6816208,40.6874649 19.7355429,40.7259584 C20.0383481,40.9422701 20.3350753,41.1472052 20.6215169,41.3329714 C20.8789714,41.5000364 21.1305039,41.6610234 21.3761143,41.8160883 C25.0588675,44.1426857 27.3924779,45.1485039 28.5062961,45.5532312 C28.5050494,45.5561922 28.5034909,45.5594649 28.5022442,45.562426 C28.4752831,45.6289714 28.4452052,45.6983221 28.4126338,45.7698545 C28.403439,45.7901143 28.3926857,45.8114649 28.3830234,45.8317247 C28.3559065,45.8896987 28.3275429,45.9482961 28.2965299,46.0087636 C28.2856208,46.0299584 28.2737766,46.0517766 28.2624,46.0732831 C28.2287377,46.1370234 28.1930494,46.2018545 28.1548675,46.2680883 C28.1442701,46.2864779 28.133361,46.3050234 28.1224519,46.3235688 C28.0783481,46.3980623 28.031439,46.4738026 27.9812571,46.5507896 C27.9740883,46.5616987 27.9672312,46.5726078 27.9597506,46.5838286 C27.7152312,46.9539584 27.3991792,47.3473091 26.9913351,47.7352052 C26.3916468,48.3055948 25.5957506,48.8641403 24.5335169,49.318426 C23.4327896,49.8219584 22.0845818,49.5339584 22.0845818,49.5339584 L23.7355948,50.7592052 C25.6442182,52.1755169 27.7579325,52.9238805 29.8487377,52.9240364 C31.271439,52.9240364 32.6779325,52.5858545 34.0248935,51.9370753 L34.0250494,51.9370753 C34.0287896,51.935361 34.0325299,51.9333351 34.0362701,51.9314649 C34.145361,51.8787896 34.2539844,51.8239325 34.3622961,51.7670494 C34.379439,51.7581662 34.3965818,51.7488156 34.4138805,51.7397766 C34.5117506,51.6878805 34.6091532,51.6342701 34.7062442,51.5789455 C34.725413,51.5681922 34.7445818,51.5572831 34.7637506,51.5462182 C34.8633351,51.4887117 34.9627636,51.4294909 35.0617247,51.3687117 C35.0749714,51.3604519 35.0882182,51.3525039 35.1014649,51.3444 C35.4418286,51.1327636 35.777361,50.9010234 36.107439,50.6490234 C36.1258286,50.6348416 36.1442182,50.6201922 36.1626078,50.6060104 C36.2509714,50.5379065 36.3388675,50.4684 36.4262961,50.3973351 C36.4523221,50.3762961 36.4783481,50.3547896 36.504374,50.3332831 C36.5851013,50.2667377 36.6655169,50.1989455 36.7456208,50.1299065 C36.7727377,50.106374 36.8000104,50.0831532 36.8271273,50.0593091 C36.9097247,49.9871532 36.9918545,49.913439 37.0735169,49.8384779 C37.0956468,49.818374 37.1176208,49.7987377 37.1395948,49.7783221 C37.3481143,49.5849195 37.5539844,49.3835688 37.7567377,49.1734909 C37.7737247,49.1560364 37.7904,49.1378026 37.8072312,49.1201922 C37.8890494,49.0346338 37.9705558,48.9479844 38.051439,48.8596208 C38.0808935,48.8275169 38.1098805,48.7947896 38.1391792,48.7625299 C38.2079065,48.6863221 38.2763221,48.6093351 38.3442701,48.5312571 C38.3760623,48.4944779 38.4078545,48.4576987 38.4396468,48.4206078 C38.5060364,48.3429974 38.5719584,48.2642961 38.6377247,48.1846597 C38.6678026,48.1481922 38.6981922,48.1115688 38.7282701,48.0746338 C38.7998026,47.9865818 38.8707117,47.8971273 38.9413091,47.8067377 C38.9637506,47.7782182 38.9863481,47.7498545 39.0087896,47.7210234 C39.0969974,47.6067896 39.184426,47.4911532 39.2712312,47.3736468 C39.2751273,47.3681922 39.2791792,47.3630494 39.2832312,47.3575948 C39.2836987,47.3569714 39.2841662,47.3563481 39.2846338,47.3555688 C39.2857247,47.3541662 39.2868156,47.3527636 39.2877506,47.351361 C39.3871792,47.2162442 39.4847377,47.0781662 39.5816727,46.9389974 C39.5927377,46.9229455 39.6042701,46.9076727 39.6153351,46.8916208 C39.9343481,46.4303221 40.2396468,45.9467377 40.5309195,45.4442961 C40.5380883,45.4319844 40.5455688,45.4202961 40.5525818,45.4079844 C40.5530494,45.407361 40.553361,45.4067377 40.5536727,45.4059584 C40.6929974,45.1647117 40.8281143,44.9178545 40.9605818,44.6678805 C40.9862961,44.619413 41.0118545,44.5706338 41.0372571,44.5218545 C41.1641143,44.2785818 41.2887896,44.0325039 41.4091013,43.781439 C41.4120623,43.7752052 41.4151792,43.7692831 41.4182961,43.7630494 C41.5403221,43.5080883 41.6579844,43.2481403 41.7731532,42.9858545 C41.7993351,42.9264779 41.8250494,42.8667896 41.8507636,42.8069455 C41.9595429,42.5541662 42.0659844,42.2992052 42.1682182,42.0400364 C42.1727377,42.0286597 42.177413,42.017439 42.1819325,42.0060623 C42.2868156,41.7395688 42.3868675,41.4687117 42.4845818,41.1958286 C42.5090494,41.1272571 42.533361,41.0585299 42.5575169,40.9893351 C42.5827636,40.9171792 42.6091013,40.8461143 42.6337247,40.7734909 C42.700426,40.5780623 42.7649455,40.3806078 42.8279065,40.1820623 C42.8310234,40.1724 42.8342961,40.1628935 42.8372571,40.153387 C42.9257766,39.8734909 43.0093091,39.5900104 43.0903481,39.3046597 C43.1107636,39.2326597 43.1310234,39.1603481 43.1509714,39.0880364 C43.2299844,38.8017506 43.3068156,38.5137506 43.3781922,38.2226338 L43.3792831,38.2181143 L43.3817766,38.2103221 L43.4141922,38.1006078 C43.4143481,38.0988935 43.4146597,38.0974909 43.4151273,38.0959325 L43.4152831,38.0949974 C43.4653091,37.8668416 43.5117506,37.6435169 43.557413,37.4212831 C43.5669195,37.3749974 43.5776727,37.3266857 43.5870234,37.2805558 C43.6317506,37.0608156 43.6728935,36.8462182 43.7132571,36.6325558 C43.7222961,36.5850234 43.7325818,36.5356208 43.7413091,36.4882442 C43.7844779,36.2565039 43.8242182,36.0295948 43.8624,35.8051792 C43.8669195,35.7785299 43.872374,35.7504779 43.8768935,35.7239844 C43.9108675,35.5220104 43.9412571,35.3253351 43.9710234,35.1297506 C43.9781922,35.0826857 43.9867636,35.0335948 43.9937766,34.9869974 C44.0190234,34.8168156 44.0408416,34.6520883 44.0629714,34.4868935 C44.0721662,34.4180104 44.0830753,34.3466338 44.0916468,34.2788416 C44.1038026,34.1831532 44.1131532,34.0921403 44.124374,33.9984779 C44.1938805,33.4112571 44.2445299,32.8534909 44.2714909,32.3340623 C44.287387,32.0275169 44.3009455,31.7292312 44.3126338,31.4390494 C44.4859325,27.0863221 44.1902961,24.5625818 43.9839584,23.3956208 C43.9856727,23.3953091 43.987387,23.3951532 43.9891013,23.3949974 C44.0004779,23.3932831 44.0135688,23.3923481 44.0251013,23.3907896 C44.0911792,23.3820623 44.1588156,23.3738026 44.2306597,23.3671013 C44.2354909,23.3666338 44.2401662,23.3661662 44.2449974,23.3658545 C44.2912831,23.3614909 44.3414649,23.3589974 44.3902442,23.3558805 C44.4321662,23.3530753 44.4722182,23.3494909 44.5158545,23.3474649 C44.5850494,23.3445039 44.6582961,23.3440364 44.7315429,23.343413 C44.7606857,23.3431013 44.7882701,23.3418545 44.8180364,23.3420104 C44.9001662,23.3426338 44.9861922,23.3460623 45.0729974,23.3502701 C45.0968416,23.351361 45.119439,23.3515169 45.1435948,23.3529195 C45.2341403,23.3582182 45.328426,23.3671013 45.4238026,23.3770753 C45.4465558,23.379413 45.468374,23.3806597 45.491439,23.3834649 C45.5871273,23.394374 45.6862442,23.4091792 45.7861403,23.4252312 C45.811387,23.4292831 45.8358545,23.4324 45.8612571,23.4367636 C45.9592831,23.4537506 46.0601143,23.4747896 46.1615688,23.4972312 C46.1919584,23.5039325 46.2217247,23.5095429 46.252426,23.5167117 C46.3499844,23.5396208 46.4500364,23.5670494 46.5507117,23.595413 C46.6181922,23.614426 46.6842701,23.6304779 46.7531532,23.6522961 C47.5146078,23.8919844 48.3538286,24.2964 49.2309195,24.9535948 C50.2175688,25.6550494 50.6422442,26.9666338 50.6422442,26.9666338 L50.8777247,24.9241403 C51.1499844,22.5631013 50.741361,20.3582182 49.6959584,18.5476208 C48.9846857,17.3155169 47.9886857,16.2665299 46.7531532,15.4243481" id="Fill-4" fill="#53C9A0"></path>
        <path d="M81.6081974,27.7812779 C81.0334442,29.9855377 80.6044052,32.0188364 79.9934961,34.2430442 L79.8697558,34.2430442 C79.2588468,32.0188364 78.8550545,29.9855377 78.2548987,27.7812779 L75.8259117,18.3907325 L71.0044052,18.3907325 L77.0930805,38.5423169 L82.5661714,38.5423169 L88.6440935,18.3907325 L83.9863792,18.3907325 L81.6081974,27.7812779 Z" id="Fill-6" fill="#000000"></path>
        <path d="M98.2173195,33.3545299 C97.3302545,34.5615429 96.6320727,35.0415429 95.4903584,35.0415429 C94.177839,35.0415429 93.5850078,34.3508416 93.5850078,32.1434649 L93.5850078,23.2026857 L89.0401247,23.2026857 L89.0401247,32.7256987 C89.0401247,36.5594649 90.4623584,38.9133351 93.7982026,38.9133351 C95.8896312,38.9133351 97.3336831,37.9421143 98.6139429,36.4145299 L98.7269299,36.4145299 L99.0542026,38.5422701 L102.762358,38.5422701 L102.762358,23.2026857 L98.2173195,23.2026857 L98.2173195,33.3545299 Z" id="Fill-8" fill="#000000"></path>
        <path d="M108.986696,29.1970442 C109.295891,27.2591221 110.535631,26.2958494 111.971891,26.2958494 C113.78654,26.2958494 114.520722,27.5104987 114.520722,29.1970442 L108.986696,29.1970442 Z M111.869969,22.8317455 C108.184878,22.8317455 104.634592,25.9017195 104.634592,30.8779792 C104.634592,35.9560052 108.021397,38.9133039 112.393917,38.9133039 C114.212462,38.9133039 116.264306,38.2732519 117.835995,37.1853039 L116.33319,34.4452519 C115.220151,35.0963688 114.176306,35.4492 113.016047,35.4492 C110.969034,35.4492 109.44519,34.4279532 109.037657,32.2026545 L118.214229,32.2026545 C118.301657,31.8317455 118.403423,31.0129403 118.403423,30.1942909 C118.403423,26.0075377 116.23906,22.8317455 111.869969,22.8317455 Z" id="Fill-10" fill="#000000"></path>
        <path d="M133.468301,23.2027481 L128.759626,23.2027481 L127.712665,25.6826961 C127.385392,26.5375013 126.992665,27.4432675 126.665392,28.2982286 L126.541652,28.2982286 C126.112457,27.4432675 125.65786,26.5375013 125.23973,25.6826961 L123.876249,23.2027481 L119.003626,23.2027481 L123.437548,30.557813 L118.723574,38.5423325 L123.432405,38.5423325 L124.624613,36.007839 C125.013756,35.105813 125.417548,34.2036312 125.806535,33.3379169 L125.930275,33.3379169 C126.42134,34.2036312 126.886847,35.1312156 127.366847,36.007839 L128.875886,38.5423325 L133.748353,38.5423325 L129.034379,31.0781766 L133.468301,23.2027481 Z" id="Fill-12" fill="#000000"></path>
        <path d="M144.512244,30.2014286 L144.995984,28.3365974 C145.555932,26.3215325 146.094062,23.9643896 146.581387,21.8366494 L146.704971,21.8366494 C147.243101,23.9388312 147.781699,26.3215325 148.341647,28.3365974 L148.823361,30.2014286 L144.512244,30.2014286 Z M150.977906,38.5423636 L155.799413,38.5423636 L149.470582,18.3907792 L144.019465,18.3907792 L137.69079,38.5423636 L142.34866,38.5423636 L143.593699,33.7420519 L149.737855,33.7420519 L150.977906,38.5423636 Z" id="Fill-14" fill="#000000"></path>
        <path d="M162.561553,42.2111688 C160.506904,42.2111688 159.161345,41.6150649 159.161345,40.4513766 C159.161345,39.8987532 159.423008,39.4263896 159.990125,38.9463896 C160.488358,39.0808831 161.088358,39.1429091 162.139995,39.1429091 L163.732255,39.1429091 C165.241294,39.1429091 166.07054,39.3643636 166.07054,40.3315325 C166.07054,41.3932987 164.608878,42.2111688 162.561553,42.2111688 M162.190488,25.8882078 C163.397657,25.8882078 164.284722,26.7481558 164.284722,28.3826494 C164.284722,30.0628052 163.386748,30.938961 162.190488,30.938961 C160.994229,30.938961 160.09641,30.0628052 160.09641,28.3826494 C160.09641,26.7427013 160.983319,25.8882078 162.190488,25.8882078 M164.565865,35.6568312 L162.078125,35.6568312 C160.401709,35.6568312 159.783164,35.2898182 159.783164,34.5331948 C159.783164,33.9916364 159.942904,33.7190649 160.317709,33.3916364 C160.997657,33.5953247 161.630384,33.6897662 162.190488,33.6897662 C165.544566,33.6897662 168.229138,32.0641558 168.229138,28.5355325 C168.229138,27.732 167.996618,26.9721039 167.709865,26.5140779 L170.175319,26.5140779 L170.175319,23.2027013 L164.565865,23.2027013 C163.878281,22.9662857 163.045449,22.8316364 162.190488,22.8316364 C158.887371,22.8316364 155.846229,24.7011429 155.846229,28.3826494 C155.846229,30.1759481 156.824462,31.6090909 157.905086,32.3621299 L157.905086,32.4857143 C156.930125,33.1732987 156.195319,34.2536104 156.195319,35.3593247 C156.195319,36.6252468 156.802956,37.4290909 157.595891,37.9639481 L157.595891,38.0876883 C156.18441,38.8732987 155.420774,39.9024935 155.420774,41.1755844 C155.420774,43.9037922 158.269138,45.0640519 161.837501,45.0640519 C167.101449,45.0640519 170.4228,42.7432208 170.4228,39.5565195 C170.4228,36.8100779 168.327164,35.6568312 164.565865,35.6568312" id="Fill-16" fill="#000000"></path>
        <path d="M177.847371,42.2111688 C175.792722,42.2111688 174.447164,41.6150649 174.447164,40.4513766 C174.447164,39.8987532 174.708826,39.4263896 175.275631,38.9463896 C175.773865,39.0808831 176.374177,39.1429091 177.425813,39.1429091 L179.018073,39.1429091 C180.527112,39.1429091 181.356358,39.3643636 181.356358,40.3315325 C181.356358,41.3932987 179.894384,42.2111688 177.847371,42.2111688 M177.476306,25.8882078 C178.683164,25.8882078 179.57054,26.7481558 179.57054,28.3826494 C179.57054,30.0628052 178.672566,30.938961 177.476306,30.938961 C176.280047,30.938961 175.381917,30.0628052 175.381917,28.3826494 C175.381917,26.7427013 176.269138,25.8882078 177.476306,25.8882078 M179.851371,35.6568312 L177.363943,35.6568312 C175.687216,35.6568312 175.068982,35.2898182 175.068982,34.5331948 C175.068982,33.9916364 175.228722,33.7190649 175.603216,33.3916364 C176.283475,33.5953247 176.916203,33.6897662 177.476306,33.6897662 C180.830384,33.6897662 183.514956,32.0641558 183.514956,28.5355325 C183.514956,27.732 183.282436,26.9721039 182.995371,26.5140779 L185.461138,26.5140779 L185.461138,23.2027013 L179.851683,23.2027013 C179.164099,22.9662857 178.331112,22.8316364 177.476306,22.8316364 C174.17319,22.8316364 171.131735,24.7011429 171.131735,28.3826494 C171.131735,30.1759481 172.110281,31.6090909 173.190592,32.3621299 L173.190592,32.4857143 C172.215631,33.1732987 171.480826,34.2536104 171.480826,35.3593247 C171.480826,36.6252468 172.088462,37.4290909 172.881709,37.9639481 L172.881709,38.0876883 C171.470229,38.8732987 170.706281,39.9024935 170.706281,41.1755844 C170.706281,43.9037922 173.554644,45.0640519 177.123008,45.0640519 C182.386956,45.0640519 185.708306,42.7432208 185.708306,39.5565195 C185.708306,36.8100779 183.612982,35.6568312 179.851371,35.6568312" id="Fill-18" fill="#000000"></path>
        <path d="M195.439792,22.8316987 C193.875896,22.8316987 192.198701,23.8354909 191.081922,25.883439 L190.969247,25.883439 L190.641818,23.2027636 L186.933818,23.2027636 L186.933818,38.5423481 L191.478857,38.5423481 L191.478857,29.6529974 C192.297039,27.5618805 193.701195,26.8163221 194.857558,26.8163221 C195.516156,26.8163221 195.967325,26.9291532 196.512779,27.0636468 L197.269714,23.1408935 C196.826026,22.9445299 196.316727,22.8316987 195.439792,22.8316987" id="Fill-20" fill="#000000"></path>
        <path d="M201.472364,29.1970442 C201.781558,27.2591221 203.021299,26.2958494 204.457403,26.2958494 C206.272208,26.2958494 207.00639,27.5104987 207.00639,29.1970442 L201.472364,29.1970442 Z M204.355481,22.8317455 C200.670545,22.8317455 197.12026,25.9017195 197.12026,30.8779792 C197.12026,35.9560052 200.506909,38.9133039 204.879584,38.9133039 C206.697974,38.9133039 208.749818,38.2732519 210.321662,37.1853039 L208.818701,34.4452519 C207.705818,35.0963688 206.661818,35.4492 205.501714,35.4492 C203.454545,35.4492 201.930701,34.4279532 201.523169,32.2026545 L210.69974,32.2026545 C210.787169,31.8317455 210.889091,31.0129403 210.889091,30.1942909 C210.889091,26.0075377 208.724571,22.8317455 204.355481,22.8317455 Z" id="Fill-22" fill="#000000"></path>
        <path d="M218.97561,42.2111688 C216.920961,42.2111688 215.575403,41.6150649 215.575403,40.4513766 C215.575403,39.8987532 215.837065,39.4263896 216.40387,38.9463896 C216.902104,39.0808831 217.502416,39.1429091 218.554052,39.1429091 L220.146312,39.1429091 C221.655351,39.1429091 222.484597,39.3643636 222.484597,40.3315325 C222.484597,41.3932987 221.022623,42.2111688 218.97561,42.2111688 M218.604545,25.8882078 C219.811403,25.8882078 220.698779,26.7481558 220.698779,28.3826494 C220.698779,30.0628052 219.800805,30.938961 218.604545,30.938961 C217.408286,30.938961 216.510156,30.0628052 216.510156,28.3826494 C216.510156,26.7427013 217.397377,25.8882078 218.604545,25.8882078 M220.97961,35.6568312 L218.492182,35.6568312 C216.815455,35.6568312 216.197221,35.2898182 216.197221,34.5331948 C216.197221,33.9916364 216.356961,33.7190649 216.731455,33.3916364 C217.411714,33.5953247 218.044442,33.6897662 218.604545,33.6897662 C221.958623,33.6897662 224.643195,32.0641558 224.643195,28.5355325 C224.643195,27.732 224.410675,26.9721039 224.12361,26.5140779 L226.589377,26.5140779 L226.589377,23.2027013 L220.979922,23.2027013 C220.292338,22.9662857 219.459351,22.8316364 218.604545,22.8316364 C215.301429,22.8316364 212.259974,24.7011429 212.259974,28.3826494 C212.259974,30.1759481 213.238519,31.6090909 214.318831,32.3621299 L214.318831,32.4857143 C213.34387,33.1732987 212.609065,34.2536104 212.609065,35.3593247 C212.609065,36.6252468 213.216701,37.4290909 214.009948,37.9639481 L214.009948,38.0876883 C212.598468,38.8732987 211.834519,39.9024935 211.834519,41.1755844 C211.834519,43.9037922 214.682883,45.0640519 218.251247,45.0640519 C223.515195,45.0640519 226.836545,42.7432208 226.836545,39.5565195 C226.836545,36.8100779 224.741221,35.6568312 220.97961,35.6568312" id="Fill-24" fill="#000000"></path>
        <path d="M235.995195,34.0856571 C235.187922,34.8890338 234.497377,35.3981766 233.468494,35.3981766 C232.388494,35.3981766 231.708545,34.9144364 231.708545,33.9259169 C231.708545,32.7661247 232.762987,31.8424364 235.995195,31.4062286 L235.995195,34.0856571 Z M234.446416,22.8316831 C232.034883,22.8316831 229.841532,23.660774 227.894571,24.8504883 L229.510364,27.8344364 C230.998364,26.9905403 232.282364,26.448826 233.569636,26.448826 C235.234831,26.448826 235.904182,27.3245143 235.995195,28.6661766 C229.92787,29.3063844 227.356442,31.0560468 227.356442,34.2879429 C227.356442,36.8723065 229.131662,38.9133974 231.928909,38.9133974 C233.653013,38.9133974 235.100649,38.1059688 236.391818,36.9711117 L236.504494,36.9711117 L236.831922,38.5423325 L240.540234,38.5423325 L240.540234,29.7726701 C240.540234,25.0722545 238.367922,22.8316831 234.446416,22.8316831 Z" id="Fill-26" fill="#000000"></path>
        <path d="M250.271065,35.3471844 C249.074805,35.3471844 248.285299,34.6491584 248.285299,32.910561 L248.285299,26.7688987 L251.962597,26.7688987 L251.962597,23.2027169 L248.285299,23.2027169 L248.285299,19.1289506 L244.526494,19.1289506 L243.995065,23.2027169 L241.645091,23.3772623 L241.645091,26.7688987 L243.74026,26.7688987 L243.74026,32.9652623 C243.74026,36.5194442 245.246649,38.9133662 249.037403,38.9133662 C250.52587,38.9133662 251.631584,38.6150805 252.446494,38.3568468 L251.72961,35.0563792 C251.325818,35.2017818 250.776623,35.3471844 250.271065,35.3471844" id="Fill-28" fill="#000000"></path>
        <path d="M257.18361,29.1970442 C257.492805,27.2591221 258.732545,26.2958494 260.168961,26.2958494 C261.983455,26.2958494 262.717636,27.5104987 262.717636,29.1970442 L257.18361,29.1970442 Z M266.600338,30.1942909 C266.600338,26.0075377 264.43613,22.8317455 260.067039,22.8317455 C256.382104,22.8317455 252.831506,25.9017195 252.831506,30.8779792 C252.831506,35.9560052 256.218468,38.9133039 260.590831,38.9133039 C262.409532,38.9133039 264.461377,38.2732519 266.032909,37.1853039 L264.53026,34.4452519 C263.417065,35.0963688 262.373377,35.4492 261.212961,35.4492 C259.166104,35.4492 257.64226,34.4279532 257.234727,32.2026545 L266.411299,32.2026545 C266.498571,31.8317455 266.600338,31.0129403 266.600338,30.1942909 Z" id="Fill-30" fill="#000000"></path>
    </g>
</svg>